<svg xmlns="http://www.w3.org/2000/svg" viewBox="0 0 2473 2808" xml:space="preserve">
  <path fill="#FFF" d="M2412.3 1824.6c-26-124.8-23.8-267.9-23.8-267.9l-.1-.1s-92 109.6-193.4 186.9c-101.3 77.3-199 137.2-199 137.2l125 46.6c-31 50.8-192.1 287.2-498.1 266.8-309.8-20.7-242.1-348.9-270.9-1003.1-1.4-31-4.9-118.4-5.9-223.4 80 0 331.9-69.1 388.7-48.1 17 6.3 42.2 25.3 62.7 42.5 30.5 25.6 29.7-73.7 28.6-126.7-.1-28.7.7-34.2-1.3-74.5-.9-19.9-4.1-76.4-30.2-49.1-12.4 12.9-41.8 34.7-59.5 43.8-52.4 27-304.6-51.5-388.7-51.5V352.6c49-34.1 83.5-94.3 83.5-158.2 0-106.3-86.2-192.5-192.5-192.5h-1.8c-106.3 0-192.5 86.2-192.5 192.5 0 64 34.5 124.2 83.5 158.2V704c-84 0-336.3 78.6-388.7 51.5-17.7-9.1-47.1-30.9-59.5-43.8-26.1-27.2-29.2 29.2-30.2 49.1-1.9 40.4-1.2 45.9-1.3 74.5-1.1 53-1.9 152.3 28.6 126.7 20.5-17.2 45.8-36.3 62.7-42.5 56.8-21 308.7 48.1 388.7 48.1-1 105-4.5 192.4-5.9 223.4-28.8 654.2 38.9 982.4-270.9 1003.1-306.1 20.4-467.2-216-498.1-266.8l125-46.6s-97.7-59.9-199-137.2c-101.3-77.3-193.4-186.9-193.4-186.9l-.1.1s2.2 143.1-23.8 267.9c-26 124.8-60.6 234-60.6 234l131.7-49.1c239.1 367 436.3 439.1 602.5 486 167.9 47.3 342.2 142.6 394.9 189.5 42.8 38.1 104.6 108.5 107.3 111.6v.2-.2c2.7-3.1 64.5-73.5 107.3-111.6 52.7-46.9 227-142.1 394.9-189.5 166.2-46.9 363.4-118.9 602.5-486l131.7 49.1c.1 0-34.6-109.2-60.6-234zM1237.4 265.7h-1.6c-39.4 0-71.3-31.9-71.3-71.3s31.9-71.3 71.3-71.3h1.6c39.4 0 71.3 31.9 71.3 71.3s-32 71.3-71.3 71.3z"/>
</svg>
